<?xml version="1.0" standalone="no"?>
<!DOCTYPE svg PUBLIC "-//W3C//DTD SVG 20010904//EN"
 "http://www.w3.org/TR/2001/REC-SVG-20010904/DTD/svg10.dtd">
<svg version="1.0" xmlns="http://www.w3.org/2000/svg"
 width="223.000000pt" height="226.000000pt" viewBox="0 0 223.000000 226.000000"
 preserveAspectRatio="xMidYMid meet">
<metadata>
Created by potrace 1.10, written by Peter Selinger 2001-2011
</metadata>
<g transform="translate(0.000000,226.000000) scale(0.100000,-0.100000)"
fill="#000000" stroke="none">
<path d="M1037 1943 c-9 -2 -15 -8 -12 -12 2 -5 -8 -6 -23 -4 -21 4 -24 2 -12
-6 13 -9 13 -11 -2 -11 -21 0 -95 -38 -105 -53 -4 -6 -1 -7 8 -2 8 5 11 4 6
-1 -8 -9 -12 -10 -38 -13 -6 0 -8 -8 -5 -17 5 -12 2 -15 -9 -10 -11 4 -14 2
-9 -6 4 -6 0 -16 -8 -22 -8 -6 -18 -20 -22 -31 -7 -19 -8 -19 -17 -2 -6 9 -17
17 -24 17 -8 0 -24 9 -35 20 -11 11 -35 21 -52 21 l-33 1 30 8 30 8 -27 1
c-26 1 -42 -4 -115 -35 -17 -8 -38 -14 -47 -14 -9 0 -16 -6 -16 -14 0 -8 -6
-17 -12 -19 -9 -4 -8 -6 2 -6 10 -1 6 -9 -14 -26 -17 -15 -26 -30 -23 -40 4
-8 1 -14 -6 -12 -8 1 -12 -19 -12 -70 0 -39 -3 -66 -7 -60 -5 7 -8 3 -8 -10 0
-22 15 -39 23 -26 2 5 2 2 0 -6 -5 -20 37 -122 48 -115 5 3 4 -7 -1 -21 -5
-14 -6 -24 -1 -21 9 6 24 -30 22 -51 -1 -7 6 -25 16 -40 17 -27 17 -27 0 -14
-10 8 -21 11 -24 7 -4 -4 -3 -10 3 -14 6 -4 14 -25 18 -47 4 -22 17 -55 28
-73 11 -18 18 -39 15 -47 -3 -7 -3 -16 1 -18 4 -2 1 -2 -5 -1 -21 5 -35 -35
-31 -91 1 -29 0 -51 -4 -48 -5 2 -8 11 -8 19 0 8 -5 13 -12 11 -6 -1 -15 17
-20 41 -5 23 -13 40 -17 37 -5 -2 -16 4 -25 14 -17 18 -18 18 -48 -9 -26 -24
-34 -27 -55 -17 -19 8 -30 7 -52 -6 -16 -9 -31 -14 -35 -10 -3 3 -6 1 -6 -5 0
-7 5 -12 11 -12 6 0 8 -9 4 -21 -5 -15 -4 -19 4 -15 6 4 13 1 15 -6 2 -7 12
-40 22 -73 10 -33 17 -68 16 -77 0 -11 4 -15 14 -11 9 3 14 -2 14 -15 0 -11 6
-22 14 -25 17 -7 48 -66 40 -79 -6 -10 119 -138 204 -207 28 -23 52 -47 52
-53 0 -5 -4 -7 -8 -4 -5 3 -9 -8 -10 -24 0 -17 4 -30 9 -30 6 0 7 4 4 10 -3 6
1 7 10 3 12 -4 13 -8 5 -13 -17 -10 6 -24 23 -14 6 4 9 4 5 -1 -5 -5 6 -17 22
-27 36 -21 44 -23 33 -5 -4 6 5 4 21 -6 34 -23 116 -48 130 -41 6 3 2 -2 -9
-12 -18 -15 -18 -16 -2 -10 11 3 31 9 45 12 22 5 24 3 12 -6 -12 -9 -1 -10 50
-6 46 4 61 3 50 -5 -11 -7 12 -8 75 -2 50 4 110 7 135 6 35 -2 40 0 25 8 -14
6 -7 7 25 3 29 -3 40 -2 32 4 -10 6 2 11 37 16 27 4 53 11 56 16 3 6 15 10 26
10 10 0 19 5 19 11 0 7 10 9 25 7 22 -5 23 -3 13 10 -11 13 -11 14 0 8 9 -6
23 3 42 25 16 19 29 39 29 44 1 6 -3 4 -8 -3 -6 -10 -10 -7 -13 11 -4 19 -1
24 10 19 11 -4 14 -1 9 11 -3 9 -3 16 1 16 21 -4 42 3 56 17 9 8 20 13 26 9 5
-3 7 0 4 8 -3 8 2 20 11 27 8 7 15 19 15 27 0 12 3 13 14 4 15 -13 46 -5 46
12 0 7 -4 7 -12 -1 -18 -18 -27 -15 -21 8 3 11 9 18 13 15 7 -4 22 18 24 37 1
3 5 10 10 15 5 5 6 2 1 -6 -5 -9 -3 -12 6 -9 8 3 13 14 11 24 -2 17 0 16 18
-5 11 -13 20 -19 20 -14 0 5 -6 15 -12 21 -10 10 -10 14 0 21 7 4 14 14 15 22
5 28 50 98 60 92 6 -4 8 3 4 18 -4 14 -1 29 8 39 7 8 13 17 13 20 -1 3 6 28
14 55 30 94 30 101 3 113 -14 6 -37 9 -52 6 -36 -6 -52 5 -55 37 -1 14 -8 26
-15 26 -8 0 -9 -5 -2 -19 8 -16 7 -17 -14 -9 -21 8 -25 5 -36 -25 -7 -19 -17
-34 -22 -34 -6 0 -8 -9 -4 -20 3 -11 1 -28 -5 -37 -9 -15 -10 -14 -5 10 7 33
-2 36 -15 5 l-9 -23 0 22 c-1 12 -4 29 -8 39 -4 12 -3 15 5 10 7 -4 5 7 -4 28
-10 19 -22 33 -27 29 -5 -3 -4 4 2 16 7 12 8 21 2 21 -13 0 0 43 17 56 13 10
21 55 24 137 0 16 4 24 7 18 6 -10 34 93 31 113 -1 5 4 12 10 16 7 4 13 19 13
32 1 14 7 24 12 22 6 -3 10 29 9 83 0 90 -21 163 -45 163 -7 0 -9 9 -4 27 6
24 5 25 -11 12 -16 -12 -17 -12 -12 2 5 11 -3 20 -28 29 -21 9 -30 17 -23 21
7 4 -5 7 -26 7 -21 0 -40 4 -44 9 -3 4 -24 5 -46 2 -22 -3 -36 -7 -30 -8 5 0
-6 -10 -25 -20 -19 -11 -34 -23 -33 -28 0 -4 -6 -15 -15 -23 -14 -13 -15 -12
-10 2 5 12 2 15 -12 11 -14 -4 -18 0 -16 13 2 10 -8 27 -21 37 -12 10 -23 27
-23 38 0 12 -7 19 -19 19 -10 0 -24 7 -31 15 -7 8 -24 15 -39 16 -14 0 -20 3
-13 6 6 2 10 9 7 13 -3 5 -12 7 -20 3 -8 -3 -15 0 -15 7 0 7 -7 10 -16 6 -8
-3 -13 -2 -10 3 3 5 -4 11 -17 15 -25 7 -133 6 -160 -1z m160 -35 c15 -6 31
-11 36 -10 4 1 7 -5 7 -13 0 -8 3 -14 8 -14 19 3 34 -4 81 -41 57 -45 63 -59
26 -56 -16 0 -23 6 -20 14 2 7 -4 12 -16 12 -11 0 -17 5 -14 10 3 6 -1 10 -10
10 -9 0 -13 4 -10 10 3 5 0 7 -8 4 -8 -3 -17 2 -20 10 -4 9 -16 16 -27 16 -11
0 -20 6 -20 14 0 19 -75 31 -141 22 -29 -4 -49 -3 -49 3 0 21 131 28 177 9z
m-179 -31 c2 -12 -3 -17 -18 -17 -11 0 -23 -7 -27 -16 -3 -8 -12 -13 -19 -10
-8 3 -11 0 -8 -9 8 -21 32 -26 38 -8 5 12 9 13 21 3 17 -14 10 -34 -8 -24 -7
3 -5 0 3 -8 8 -7 16 -26 18 -43 2 -16 4 -38 5 -47 1 -10 8 -18 17 -19 8 -1 4
-4 -10 -9 -19 -5 -30 -2 -48 16 -25 26 -38 32 -26 12 5 -8 1 -7 -10 2 -11 8
-14 16 -7 18 6 2 8 8 5 13 -3 6 0 17 7 25 14 17 -2 64 -21 64 -6 0 -8 -4 -5
-10 3 -5 1 -10 -5 -10 -6 0 -18 -7 -26 -15 -17 -16 -48 -21 -42 -6 6 17 90 81
114 87 13 3 24 13 24 21 0 20 24 11 28 -10z m172 -72 c5 -67 4 -71 -23 -97
-35 -33 -59 -35 -98 -7 -27 19 -29 24 -29 93 0 40 3 76 7 80 4 4 37 6 73 4
l65 -3 5 -70z m86 -2 c-3 -4 2 -15 11 -26 13 -15 15 -21 6 -24 -7 -3 -13 -15
-13 -27 0 -12 6 -28 13 -35 9 -11 9 -12 0 -7 -12 6 -17 -5 -25 -57 -5 -33 -23
-23 -26 15 -3 31 0 37 12 32 9 -3 16 -1 16 4 0 20 -35 17 -53 -5 -11 -14 -24
-20 -35 -16 -15 6 -15 5 -3 -10 17 -21 8 -46 -16 -43 -13 2 -18 12 -18 32 0
25 4 29 28 29 18 -1 26 3 23 12 -3 7 0 13 7 14 9 0 9 2 0 6 -10 3 -9 8 3 20 8
9 14 27 14 42 -3 44 -1 48 31 49 17 0 28 -2 25 -5z m-577 -28 c49 -25 56 -82
15 -114 -34 -27 -50 -26 -79 3 -28 28 -24 63 9 76 42 16 74 -23 40 -50 -13
-11 -16 -10 -21 8 -7 27 -23 29 -23 3 0 -25 15 -34 44 -27 53 13 32 86 -24 86
-41 0 -70 -31 -70 -75 0 -28 6 -39 30 -54 l30 -18 -22 -11 c-18 -8 -19 -11 -5
-11 9 -1 17 -5 17 -11 0 -5 -8 -10 -17 -11 -11 0 -13 -3 -5 -6 19 -8 15 -33
-5 -27 -13 4 -11 0 5 -12 12 -9 22 -23 22 -30 0 -17 -16 -18 -26 -3 -4 8 -9 7
-15 -2 -8 -11 -11 -11 -20 4 -11 19 -29 23 -29 7 0 -6 16 -20 35 -31 19 -12
35 -29 35 -39 0 -10 7 -23 15 -30 20 -17 20 -44 -1 -36 -8 3 -12 2 -9 -4 3 -6
-2 -10 -11 -10 -15 0 -14 -3 5 -21 18 -17 20 -23 9 -30 -10 -7 -11 -12 0 -29
14 -23 16 -40 3 -40 -5 0 -16 15 -25 33 -8 17 -15 25 -15 17 0 -8 6 -26 14
-40 19 -32 19 -44 0 -36 -11 4 -15 -1 -15 -17 0 -22 -16 -47 -30 -47 -4 0 -5
24 -3 53 5 53 -6 94 -61 241 -39 102 -36 184 7 256 49 84 131 119 196 85z
m938 0 c51 -21 71 -41 100 -99 38 -75 35 -157 -9 -266 -48 -117 -61 -172 -56
-225 3 -25 2 -45 -1 -45 -15 0 -31 25 -31 47 0 16 -4 21 -15 17 -19 -8 -19 5
0 30 8 11 15 29 14 40 0 17 -4 14 -16 -11 -17 -34 -33 -43 -33 -20 0 7 6 19
12 25 10 10 10 15 -2 22 -12 8 -12 12 3 28 20 21 13 54 -9 45 -19 -7 -18 21 1
37 8 7 15 20 15 30 0 10 16 27 35 39 19 11 35 25 35 31 0 16 -18 12 -29 -7 -9
-15 -12 -15 -20 -4 -6 9 -11 10 -15 2 -10 -15 -26 -14 -26 3 0 7 10 21 23 30
15 12 17 16 5 12 -21 -6 -25 19 -5 27 7 3 5 6 -5 6 -10 1 -18 6 -18 11 0 6 8
10 18 10 13 1 12 4 -7 14 l-24 13 29 14 c38 19 46 77 15 108 -46 46 -130 5
-101 -49 16 -29 64 -24 68 8 4 28 -14 29 -21 0 -5 -18 -8 -19 -21 -8 -22 17
-20 37 4 50 49 26 85 -36 44 -77 -44 -44 -104 -13 -104 53 0 25 7 36 33 53 38
25 65 26 114 6z m-729 -27 c17 -17 15 -48 -5 -70 -29 -32 -153 -22 -153 13 0
23 -4 23 54 3 55 -19 100 -7 94 24 -3 18 -48 31 -48 13 0 -6 6 -8 14 -5 8 3
17 1 20 -5 8 -12 -24 -30 -41 -24 -14 5 -18 45 -6 56 11 11 58 8 71 -5z m491
-6 c12 -22 3 -39 -24 -44 -13 -2 -21 3 -23 16 -3 14 0 17 12 13 9 -4 16 -2 16
3 0 13 -37 13 -44 1 -9 -15 4 -40 25 -46 17 -6 59 3 102 20 13 5 17 2 17 -13
0 -23 -25 -32 -89 -32 -50 0 -81 21 -81 55 0 11 5 26 12 33 18 18 66 15 77 -6z
m-411 -104 c-2 -18 -7 -33 -13 -33 -5 0 -11 15 -13 33 -3 24 1 32 13 32 12 0
16 -8 13 -32z m116 23 c4 -5 -4 -7 -16 -4 -19 5 -21 3 -10 -8 18 -20 15 -39
-8 -39 -25 0 -36 25 -20 45 14 17 46 20 54 6z m463 -338 c-4 -251 -6 -273 -29
-343 -63 -191 -190 -330 -372 -407 -50 -21 -50 -21 -99 -2 -173 69 -323 236
-379 424 -18 61 -21 104 -25 333 l-4 262 456 0 457 0 -5 -267z m-940 -205 c9
-63 9 -63 -1 -110 -8 -36 -25 -52 -27 -25 -4 38 -4 164 -1 175 9 27 22 9 29
-40z m1008 -42 c0 -98 -8 -125 -24 -83 -20 51 -10 182 13 174 7 -2 11 -36 11
-91z m35 -143 c-5 -87 -21 -135 -54 -162 -14 -12 -16 -8 -16 32 0 25 -3 48 -8
51 -4 2 -8 -22 -8 -55 -1 -42 -6 -65 -19 -79 -26 -29 -34 -25 -30 18 4 36 4
35 -11 -10 -14 -44 -21 -50 -84 -83 -75 -40 -140 -98 -140 -127 0 -20 -12 -23
-39 -8 -15 7 -20 4 -30 -16 -10 -22 -14 -24 -27 -13 -14 11 -18 11 -28 -2 -6
-9 -23 -24 -39 -34 -27 -17 -28 -17 -50 1 -12 11 -27 26 -34 34 -9 12 -14 12
-24 3 -15 -15 -39 0 -39 24 0 11 -4 11 -20 3 -22 -12 -40 -6 -40 14 0 23 -71
84 -141 121 -62 33 -69 39 -79 78 -16 62 -21 67 -16 20 5 -48 -2 -53 -30 -22
-14 15 -18 35 -18 80 1 32 -3 56 -7 53 -5 -3 -9 -26 -9 -51 0 -40 -2 -44 -16
-32 -36 29 -54 86 -54 166 1 71 2 76 15 59 8 -11 15 -28 15 -38 0 -11 5 -15
15 -12 19 8 19 -6 1 -42 -15 -27 -13 -44 3 -44 5 0 11 14 15 30 3 18 12 30 21
30 8 0 15 5 15 10 0 6 4 10 10 10 6 0 8 -30 6 -75 -3 -54 0 -75 8 -72 6 2 10
16 9 30 -1 23 21 45 30 29 12 -20 16 -62 7 -67 -14 -9 -12 -38 4 -60 13 -18
14 -17 14 9 -1 15 2 29 5 32 6 6 77 -66 77 -78 0 -4 27 -37 60 -74 33 -36 60
-71 60 -76 0 -6 11 -3 24 5 23 15 24 15 30 -8 7 -27 25 -32 44 -13 8 8 14 5
21 -15 6 -14 20 -31 32 -38 20 -10 25 -9 41 11 10 12 18 29 18 37 0 10 6 13
15 9 8 -3 22 -9 30 -12 9 -4 16 3 21 20 6 24 7 25 30 9 15 -9 24 -11 24 -4 0
6 24 38 53 71 28 33 70 82 92 109 22 27 43 50 46 50 13 2 20 -32 9 -43 -19
-19 -10 -29 11 -10 16 14 19 26 15 49 -7 31 -8 87 -2 92 11 12 34 -12 33 -34
-1 -14 3 -28 10 -30 9 -3 11 14 7 71 -3 48 -1 76 6 76 5 0 10 -4 10 -10 0 -5
6 -10 14 -10 16 0 26 -21 26 -53 0 -16 3 -18 12 -9 9 9 9 19 0 45 -16 43 -15
50 3 43 10 -3 15 1 15 12 0 14 26 62 33 62 1 0 0 -39 -3 -87z m-1219 40 c49
-151 160 -316 264 -393 59 -43 147 -90 171 -90 13 0 15 -7 9 -39 l-6 -39 53
-12 c89 -19 179 -23 275 -11 123 15 126 16 119 57 -7 32 -6 33 66 68 98 47
178 113 238 194 51 69 108 176 130 247 16 51 28 65 40 44 5 -9 18 -26 28 -39
l19 -23 32 22 c18 13 35 21 38 17 8 -8 -36 -142 -70 -211 -65 -130 -169 -254
-275 -325 -35 -24 -50 -40 -46 -50 18 -45 16 -48 -43 -78 -84 -43 -184 -70
-288 -79 -190 -17 -376 19 -498 94 -38 24 -38 24 -22 50 16 24 16 26 0 35 -32
19 -130 101 -169 142 -84 90 -167 238 -206 365 -19 65 -14 73 27 41 35 -28 46
-25 67 15 11 19 23 35 27 35 4 0 13 -17 20 -37z m1092 -323 c3 -11 2 -18 -3
-15 -4 3 -11 -2 -14 -11 -4 -10 -13 -13 -26 -9 -21 7 -28 -10 -7 -18 6 -3 3
-6 -8 -6 -46 -2 -45 15 2 47 27 17 49 32 49 32 1 0 4 -9 7 -20z m-813 -10 c30
-16 32 -19 17 -26 -13 -5 -27 1 -45 20 -31 30 -21 33 28 6z m65 -29 c-5 -9 32
-27 47 -23 3 1 9 -5 12 -14 12 -31 -45 -25 -97 11 -21 14 -21 14 4 24 31 13
42 13 34 2z m646 -14 c9 -7 14 -18 11 -25 -3 -10 -7 -10 -18 -1 -8 7 -17 9
-21 5 -3 -3 -1 -6 6 -6 7 0 9 -5 6 -10 -5 -8 -11 -7 -21 1 -11 9 -14 8 -14 -4
0 -8 -6 -20 -14 -26 -11 -10 -14 -7 -12 14 0 14 8 28 18 30 9 3 19 12 22 20 7
18 16 18 37 2z m-308 -73 c3 -4 1 -16 -5 -27 -10 -20 -11 -20 -24 -2 -7 10
-11 22 -8 26 6 10 28 12 37 3z m-140 -53 c4 -1 7 -8 7 -16 0 -7 8 -19 18 -25
16 -11 16 -11 0 -6 -10 3 -18 1 -18 -3 0 -5 -11 -8 -24 -7 -13 0 -22 4 -19 9
2 4 -3 7 -11 7 -8 0 -20 9 -26 20 -7 14 -7 20 0 20 5 0 10 -7 10 -15 0 -8 5
-15 11 -15 6 0 8 8 5 18 -5 15 -2 18 16 16 13 -1 26 -3 31 -3z m263 -6 c-6
-18 24 -17 36 0 5 6 11 6 19 -2 9 -9 6 -13 -15 -19 -14 -3 -26 -10 -26 -14 0
-4 -10 -8 -22 -8 -13 0 -40 -3 -61 -7 -34 -7 -37 -6 -30 11 4 11 8 13 11 6 6
-19 21 -14 15 6 -3 13 2 18 19 19 17 2 19 0 8 -7 -8 -5 -11 -13 -6 -17 5 -4
18 4 29 20 23 30 32 35 23 12z"/>
<path d="M1073 1849 c11 -6 17 -22 17 -45 0 -19 4 -33 9 -30 5 4 11 3 14 -1 2
-5 2 -2 0 5 -1 8 -3 29 -3 48 0 31 -3 34 -27 34 -24 -1 -25 -2 -10 -11z"/>
<path d="M1126 1827 c2 -55 7 -64 13 -22 4 30 10 40 23 39 10 -1 15 2 12 7 -3
5 -15 9 -27 9 -18 0 -22 -5 -21 -33z"/>
<path d="M1060 1732 c0 -4 13 -14 29 -23 26 -15 30 -15 55 0 14 8 26 19 26 23
0 14 -31 8 -36 -7 -4 -8 -13 -15 -21 -15 -8 0 -13 6 -10 13 3 8 -4 14 -19 15
-13 1 -24 -2 -24 -6z"/>
<path d="M545 1710 c-8 -16 -15 -48 -15 -70 0 -43 25 -110 41 -110 12 0 12 2
-6 37 -24 48 -26 97 -5 137 10 20 14 36 9 36 -5 0 -15 -13 -24 -30z"/>
<path d="M496 1578 c-10 -61 17 -121 74 -161 49 -35 54 -20 5 17 -45 35 -57
58 -65 131 l-6 60 -8 -47z"/>
<path d="M1660 1725 c33 -40 29 -135 -8 -177 -13 -16 -13 -18 0 -18 20 0 48
63 48 111 0 40 -26 99 -43 99 -5 0 -4 -7 3 -15z"/>
<path d="M1721 1577 c-1 -64 -21 -109 -65 -143 -46 -37 -46 -49 0 -22 62 37
95 118 75 183 -9 28 -9 27 -10 -18z"/>
<path d="M693 1312 c5 -281 10 -312 69 -431 48 -98 172 -218 273 -266 l77 -36
52 22 c168 72 301 223 353 399 12 42 17 116 20 311 l5 257 -427 0 -427 0 5
-256z m207 217 c0 -11 -4 -17 -10 -14 -5 3 -10 2 -10 -4 0 -5 4 -12 9 -16 5
-3 10 -31 10 -63 0 -31 3 -69 6 -84 5 -25 3 -28 -24 -28 -29 0 -29 0 -19 43 5
23 9 69 8 102 -3 81 -2 85 15 85 8 0 15 -9 15 -21z m-123 5 c-3 -4 0 -13 8
-21 18 -17 20 -47 3 -37 -7 5 -8 3 -2 -7 5 -8 10 -32 11 -54 1 -22 5 -52 7
-67 3 -16 1 -28 -4 -28 -6 0 -10 -4 -10 -10 0 -11 179 -9 186 2 3 4 1 8 -3 8
-5 0 -8 45 -6 100 2 58 -1 100 -6 100 -17 0 -22 -19 -11 -42 11 -23 11 -23 -6
-3 -16 19 -16 19 -10 -10 4 -19 3 -25 -2 -16 -8 11 -11 11 -16 0 -3 -8 -3 -3
1 11 4 14 7 33 7 42 0 9 4 14 8 12 4 -3 8 -1 8 5 0 5 -6 11 -12 14 -7 2 -1 4
14 4 38 1 53 -21 55 -81 1 -28 4 -70 6 -93 3 -24 2 -43 -3 -43 -4 0 -10 -10
-13 -21 -5 -18 -12 -21 -46 -17 -23 2 -41 0 -41 -4 0 -4 16 -20 35 -35 19 -15
35 -33 35 -40 0 -16 56 -73 71 -73 7 0 2 8 -9 19 -28 24 -28 31 3 31 25 0 33
14 15 25 -17 10 -11 26 8 23 9 -1 23 1 30 6 17 10 -3 36 -28 36 -22 0 -46 28
-34 39 5 5 36 13 68 20 55 10 61 9 78 -9 10 -11 23 -20 29 -20 6 0 7 -5 4 -10
-4 -7 -13 -7 -26 0 -26 14 -41 3 -33 -23 3 -12 3 -19 -1 -15 -5 4 -18 -4 -31
-17 -13 -14 -28 -25 -34 -25 -6 0 -9 -4 -5 -10 8 -13 35 -1 35 17 0 8 5 11 10
8 15 -9 12 -35 -4 -35 -7 0 -16 -14 -20 -32 -3 -17 -9 -29 -12 -26 -3 3 -27
-3 -55 -13 l-50 -19 -29 30 c-17 17 -30 37 -30 45 0 11 -10 13 -47 9 -44 -5
-94 -23 -66 -24 11 0 15 -40 3 -40 -3 0 -6 -15 -7 -33 0 -28 5 -37 33 -52 18
-9 36 -17 40 -15 4 1 10 -4 15 -11 6 -10 11 -10 22 -1 12 10 18 9 31 -3 12
-12 16 -13 16 -3 0 10 3 9 10 -2 5 -9 25 -15 54 -15 50 0 72 -13 37 -22 -16
-4 -19 -8 -10 -14 10 -6 7 -10 -11 -17 -46 -18 -93 -92 -59 -92 7 0 9 -11 6
-30 -4 -17 -2 -30 3 -30 6 0 10 -8 10 -17 0 -14 -2 -15 -9 -4 -7 11 -12 8 -25
-12 -16 -23 -19 -24 -45 -11 -16 8 -32 24 -35 37 -5 18 -8 20 -16 7 -8 -12
-10 -12 -10 5 0 11 -12 31 -26 44 -14 13 -28 37 -31 53 -4 20 -10 27 -20 24
-8 -3 -11 -1 -8 4 8 13 -4 72 -14 66 -4 -3 -7 3 -8 12 -1 9 -10 51 -21 92 -17
65 -21 129 -14 213 1 9 10 17 20 17 14 0 15 -2 2 -10 -13 -8 -12 -10 3 -10 26
0 21 -20 -5 -20 -22 -1 -22 -1 -4 -12 15 -8 21 -8 24 0 6 18 22 14 23 -5 0
-11 3 -13 6 -5 2 6 9 12 15 12 6 0 8 -7 4 -15 -3 -8 0 -15 6 -15 7 0 6 -5 -2
-15 -6 -8 -9 -19 -5 -26 6 -8 10 -7 16 2 4 8 14 14 21 14 7 0 12 8 12 18 -1 9
-2 26 -3 37 -1 16 -8 20 -37 20 -27 0 -37 5 -41 20 -3 11 -9 20 -13 20 -4 0
-4 19 2 43 5 23 7 72 5 110 -3 43 -1 67 6 67 6 0 8 -3 4 -6z m254 -11 c1 -17
2 -17 6 0 4 16 24 17 229 17 205 0 225 -2 232 -17 8 -20 10 -355 2 -445 -2
-31 -9 -56 -14 -55 -6 1 -12 -9 -14 -23 -2 -20 -1 -22 7 -10 17 24 13 7 -9
-38 -11 -22 -20 -49 -20 -59 0 -15 -2 -16 -10 -3 -8 13 -10 13 -10 -2 0 -9
-12 -31 -27 -49 -16 -18 -22 -30 -16 -26 9 6 11 3 7 -7 -5 -12 -11 -13 -24 -6
-27 15 -37 12 -15 -3 18 -14 12 -43 -7 -31 -7 4 -6 9 2 14 8 5 2 10 -15 14
-17 4 -25 12 -21 21 2 7 0 16 -7 18 -9 3 -9 8 2 20 7 9 17 14 22 11 5 -3 9 0
9 6 0 7 6 10 14 7 12 -5 14 16 14 121 -1 70 3 135 7 146 10 23 -7 72 -24 68
-7 -1 -10 2 -6 7 8 15 -33 34 -62 28 -18 -3 -23 -1 -19 10 5 11 1 13 -16 7
-20 -6 -21 -5 -9 10 8 9 11 19 7 23 -3 3 -6 1 -6 -6 0 -7 -5 -9 -10 -6 -6 4
-8 10 -5 14 5 10 -22 35 -48 44 -11 4 -15 12 -11 19 5 8 2 9 -11 4 -11 -4 -22
-2 -27 6 -6 10 -10 10 -18 -2 -9 -13 -10 -13 -10 0 -1 12 -2 12 -10 -2 -6 -10
-18 -14 -30 -11 -11 3 -18 9 -15 13 3 5 -2 15 -10 24 -8 8 -11 17 -7 20 15 9
7 75 -10 95 -16 18 -14 31 4 31 4 0 9 -8 9 -17z m-293 -59 c0 -15 -7 -38 -15
-53 -15 -27 -14 -6 3 33 5 14 4 17 -4 12 -13 -8 -17 16 -5 27 13 14 21 6 21
-19z m478 -196 c3 -4 0 -8 -6 -8 -6 0 -4 -12 5 -31 18 -34 13 -48 -10 -29 -12
10 -16 9 -21 -3 -3 -9 -12 -13 -20 -10 -9 3 -14 -1 -14 -12 0 -9 -4 -14 -9
-10 -6 3 -14 -3 -20 -12 -9 -16 -10 -16 -11 5 0 12 5 22 10 22 6 0 22 11 36
25 l26 26 -26 -7 c-15 -3 -26 -2 -26 4 0 12 29 24 40 17 5 -3 11 -1 15 5 3 5
-1 10 -9 10 -8 0 -18 5 -21 10 -4 7 6 10 25 8 17 -1 34 -6 36 -10z m-151 -14
c13 -5 7 -10 -22 -20 -21 -8 -44 -12 -50 -9 -20 7 -15 27 5 21 9 -3 24 -1 32
4 18 12 15 11 35 4z m267 -51 c23 -20 23 -56 1 -90 -10 -15 -13 -24 -7 -21 15
10 17 -181 2 -199 -14 -18 -53 -17 -72 2 -20 21 -29 19 -21 -5 4 -11 2 -20 -4
-20 -24 0 -9 -21 26 -35 20 -8 33 -18 30 -21 -3 -3 -2 -17 3 -30 6 -16 6 -24
-1 -24 -6 0 -8 -4 -5 -9 11 -17 -7 -72 -26 -82 -23 -13 -78 6 -78 26 0 17 23
25 41 14 24 -15 28 -10 18 20 -5 15 -9 32 -8 37 4 26 -2 35 -21 29 -13 -4 -20
-2 -20 7 0 8 -3 9 -8 3 -4 -5 -15 -11 -24 -11 -23 -2 -24 42 -4 81 19 36 5 75
-34 97 -20 11 -30 25 -30 40 0 19 -2 20 -10 8 -8 -13 -10 -12 -10 4 0 18 -1
18 -18 3 -23 -21 -52 -22 -52 -2 0 15 -39 21 -97 16 -25 -2 -31 14 -10 23 6 3
-3 3 -21 0 -36 -6 -48 9 -38 51 8 32 20 31 59 -1 28 -24 37 -26 87 -21 30 4
64 8 75 10 11 3 26 0 33 -6 20 -16 50 -16 56 0 3 7 12 10 21 7 8 -3 15 -1 15
5 0 6 4 11 10 11 5 0 9 -20 8 -45 0 -34 6 -55 28 -86 15 -23 33 -51 39 -63 13
-26 48 -28 53 -2 2 11 -4 46 -14 79 -18 59 -18 59 4 101 26 48 28 81 7 89 -18
7 -29 -9 -21 -30 5 -11 2 -14 -11 -9 -16 6 -16 6 0 -12 24 -26 22 -46 -4 -39
-15 4 -19 2 -15 -8 7 -21 -12 -29 -28 -12 -15 14 -16 83 -2 105 19 31 72 39
98 15z m-129 -36 c3 -8 1 -20 -4 -28 -5 -8 -9 -10 -9 -5 0 5 -7 3 -15 -4 -8
-7 -15 -9 -15 -4 0 5 -6 2 -13 -6 -16 -19 -47 -22 -47 -4 0 8 7 14 15 14 8 0
15 5 15 10 0 6 5 10 11 10 6 0 17 7 25 15 19 19 30 19 37 2z m-58 -227 c3 -5
1 -10 -4 -10 -6 0 -11 -15 -11 -34 0 -19 -6 -36 -12 -39 -9 -2 -13 -23 -12
-59 1 -47 -2 -58 -22 -73 -13 -10 -24 -26 -24 -36 0 -13 -7 -19 -24 -19 -14 0
-28 -4 -31 -10 -3 -6 -17 1 -31 15 -32 32 -22 49 22 40 31 -5 34 -4 34 19 0
13 6 26 12 28 10 4 9 9 -2 21 -39 42 -41 47 -28 48 9 0 9 2 2 5 -22 9 14 62
51 74 18 6 39 18 45 26 14 16 26 18 35 4z m50 -183 c4 5 2 -2 -4 -14 -6 -13
-16 -23 -20 -23 -11 0 -19 -31 -14 -48 3 -6 9 -9 15 -6 6 4 9 1 6 -6 -2 -8
-20 -19 -39 -25 -22 -8 -29 -14 -19 -17 8 -3 3 -5 -12 -4 -33 1 -36 12 -7 21
11 4 19 9 16 11 -2 3 -16 0 -31 -5 -17 -7 -26 -7 -26 -1 0 6 8 10 18 10 14 0
15 2 2 10 -13 8 -12 10 3 10 9 0 17 7 17 16 0 14 2 15 16 3 15 -12 16 -11 9
10 -4 15 -3 21 3 17 5 -3 15 1 22 9 7 8 17 12 23 8 6 -3 7 -1 3 5 -5 9 -13 9
-28 1 -16 -9 -19 -8 -15 3 2 7 10 12 17 10 8 -2 10 3 6 15 -6 16 -6 16 12 0
10 -9 22 -14 27 -10z"/>
<path d="M880 1229 c0 -8 16 -22 35 -31 29 -13 35 -13 35 -2 0 8 -8 14 -17 14
-9 0 -25 7 -35 17 -15 13 -18 13 -18 2z"/>
<path d="M406 933 c-11 -23 -15 -47 -11 -67 5 -23 4 -27 -4 -16 -6 8 -11 25
-11 36 0 12 -12 29 -26 39 l-27 17 7 -27 c13 -51 94 -213 130 -262 41 -54 166
-183 177 -183 4 0 21 -12 38 -26 l31 -26 11 26 c11 22 19 25 73 28 l61 3 -55
26 c-124 58 -239 181 -314 334 -25 51 -46 100 -46 108 0 31 -17 26 -34 -10z
m62 -127 c6 -29 -12 -38 -41 -23 l-27 14 22 16 c27 19 42 17 46 -7z m32 -53
c-1 -10 -36 -53 -44 -53 -3 0 -6 7 -6 15 0 8 -4 15 -10 15 -17 0 -11 18 8 23
29 8 52 7 52 0z m40 -65 c0 -4 -6 -5 -14 -2 -8 3 -17 1 -21 -5 -3 -6 -14 -11
-23 -11 -14 1 -13 4 6 19 12 11 22 25 22 33 1 14 30 -19 30 -34z m16 -65 c-29
-27 -41 -29 -32 -8 3 10 -1 15 -12 15 -13 1 -10 7 12 26 28 25 30 25 43 8 12
-16 10 -21 -11 -41z m54 -1 c0 -14 -49 -56 -57 -49 -3 4 4 18 17 32 24 25 40
32 40 17z m25 -76 c-19 -29 -35 -34 -35 -10 0 9 -5 12 -11 8 -7 -4 -10 -1 -7
7 6 19 51 40 61 30 5 -5 1 -21 -8 -35z m66 -13 c12 -15 12 -16 -8 -11 -16 4
-20 2 -16 -10 4 -9 2 -13 -4 -9 -7 5 -9 -1 -5 -15 5 -23 5 -23 -16 -4 -20 18
-20 19 -4 42 20 28 35 30 53 7z"/>
<path d="M1791 947 c-6 -16 -11 -32 -11 -36 0 -4 -18 -43 -40 -85 -77 -148
-177 -255 -299 -320 l-66 -35 57 -1 c50 0 60 -3 74 -25 l16 -25 36 27 c107 77
221 210 277 323 23 46 65 154 65 167 0 3 -13 -5 -30 -17 l-29 -21 -20 38 -19
38 -11 -28z m40 -75 c8 2 15 -7 17 -19 2 -16 -2 -23 -13 -23 -9 0 -13 4 -10
10 4 6 -1 7 -10 3 -22 -8 -38 17 -23 35 8 9 13 10 18 2 4 -6 13 -10 21 -8z
m-1 -72 c0 -13 -6 -13 -41 5 -16 9 -27 20 -24 25 7 12 65 -16 65 -30z m-39
-10 c20 -11 25 -35 10 -45 -13 -8 -61 16 -61 30 0 25 20 31 51 15z m-36 -56
c27 -18 25 -37 -3 -27 -15 6 -15 5 -3 -10 17 -21 7 -22 -24 -1 -20 13 -22 19
-12 35 14 23 12 23 42 3z m-40 -56 c25 -11 34 -28 15 -28 -5 0 -10 -8 -10 -17
0 -14 -6 -11 -24 12 -13 16 -22 33 -19 37 6 10 7 10 38 -4z m-50 -47 c-3 -11
-1 -22 5 -26 5 -3 10 2 10 11 0 14 3 15 11 7 13 -13 5 -43 -11 -43 -5 0 -19 9
-31 21 -16 16 -18 23 -8 35 17 20 31 17 24 -5z m-15 -78 c0 -6 -5 -15 -11 -18
-13 -9 -60 34 -52 48 3 5 14 -1 24 -14 10 -13 19 -19 19 -12 0 6 -4 15 -10 18
-5 3 -10 14 -10 23 0 13 5 12 20 -8 11 -14 20 -30 20 -37z m-62 -5 c15 -15 16
-45 1 -54 -16 -9 -53 31 -46 50 8 19 28 21 45 4z m-63 -28 c-4 -6 4 -19 17
-30 21 -17 22 -19 5 -26 -13 -4 -26 0 -40 15 -22 22 -22 22 -3 37 23 17 30 18
21 4z"/>
<path d="M790 452 c0 -3 67 -32 75 -32 3 0 5 8 5 18 0 13 -9 17 -40 17 -22 0
-40 -1 -40 -3z"/>
<path d="M722 402 c-13 -24 -22 -45 -20 -47 2 -1 26 -14 55 -29 188 -94 472
-101 678 -15 104 43 101 40 74 88 -16 27 -29 40 -39 37 -8 -3 -42 -14 -75 -26
-196 -69 -387 -66 -580 9 l-70 27 -23 -44z m68 3 c23 -28 -10 -74 -40 -55 -11
7 -11 14 0 39 14 35 22 38 40 16z m669 -6 c-10 -6 -8 -9 9 -9 12 0 22 -6 22
-14 0 -17 -28 -41 -37 -32 -4 4 -1 11 7 16 13 8 12 10 -3 10 -10 0 -20 7 -24
16 -6 17 15 36 30 27 5 -3 3 -9 -4 -14z m-604 -19 c3 -5 -1 -10 -10 -10 -9 0
-13 -4 -10 -10 3 -5 1 -10 -6 -10 -8 0 -8 -4 1 -15 10 -12 10 -15 -3 -15 -21
0 -26 10 -20 43 5 27 35 38 48 17z m569 -15 c8 -30 1 -45 -19 -45 -14 0 -35
29 -35 49 0 19 16 12 29 -11 11 -22 11 -22 6 5 -7 34 11 36 19 2z m-516 -13
c2 -8 -2 -12 -13 -10 -10 2 -20 -3 -23 -11 -3 -10 0 -12 12 -8 11 5 16 3 14
-5 -6 -16 -20 -19 -37 -9 -12 8 -13 14 -3 36 13 27 42 31 50 7z m452 -8 c12
-30 6 -44 -19 -44 -18 0 -35 45 -24 62 10 17 34 7 43 -18z m-400 1 c10 -12 10
-21 2 -40 -21 -45 -51 -21 -38 30 7 29 18 32 36 10z m344 -27 c3 -16 2 -28 -3
-28 -11 0 -21 25 -21 53 0 27 15 11 24 -25z m-286 24 c8 -5 10 -19 6 -39 -5
-24 -10 -30 -25 -26 -19 5 -24 28 -13 57 7 18 13 19 32 8z m232 -9 c0 9 5 17
11 17 7 0 9 -9 5 -22 -3 -13 -6 -29 -6 -35 0 -22 -16 -14 -28 12 -17 36 -14
54 3 31 13 -17 15 -18 15 -3z m-182 -28 c-1 -22 -7 -35 -16 -35 -9 0 -12 10
-8 33 5 40 4 37 16 37 6 0 10 -16 8 -35z m103 18 c12 -15 12 -16 -3 -10 -13 5
-18 1 -18 -13 0 -14 5 -18 18 -13 15 6 15 5 4 -10 -16 -19 -39 -12 -47 14 -6
19 9 49 25 49 4 0 14 -8 21 -17z m39 -18 c0 -19 -4 -35 -10 -35 -5 0 -10 16
-10 35 0 19 5 35 10 35 6 0 10 -16 10 -35z"/>
<path d="M1360 435 c0 -18 -4 -18 45 0 l40 14 -42 1 c-32 0 -43 -4 -43 -15z"/>
</g>
</svg>
